<mxfile host="65bd71144e">
    <diagram id="5SH0DxctCMVNDT_n1GNB" name="第 1 页">
        <mxGraphModel dx="874" dy="728" grid="1" gridSize="10" guides="1" tooltips="1" connect="1" arrows="1" fold="1" page="1" pageScale="1" pageWidth="850" pageHeight="1100" math="0" shadow="0">
            <root>
                <mxCell id="0"/>
                <mxCell id="1" parent="0"/>
                <mxCell id="2" value="" style="shape=image;verticalLabelPosition=bottom;labelBackgroundColor=default;verticalAlign=top;aspect=fixed;imageAspect=0;image=data:image/png,iVBORw0KGgoAAAANSUhEUgAAAWAAAABsCAYAAABU1GiDAAAgAElEQVR4nO3deXgcxZ3w8W9V93T3HBrJOnzhC2xjmyPGYAgBNlxJCCYBkmwgHIHNEtglZBMDecNyLhBMFpK8kIR3s7vZdzlyrHkxIWHDZQewCWBOh8UYfIHBh2RLtu45u7vq/WNG0kiWbfkQssb18aNnxj3d1dU9Nb+urq6uFt6REzRopG0hhMD3fWKxGEEQ4OZgy/L3sTAMwzD2NRlxXLQApULCMKCyMkkYBiSTFdiWCb2GYRiDRVoRCytigQQkdKRTKCFobmtDDXXuDMMwypjUhEgpcF0XYVlEXI9AKWKJBJapARuGYQwaKYRAA75S2BGHUCsCpcjmcnieN9T5MwzDKFsyVCFKayzLIggDpJR4nofSCl+bRgjDMIzBIq1IBMuJEKLxA59EIobKZ4m6DomKBHqoc2gYhlGm7HwQgBQ4nktFZZLmtjaEG6Ezn8UNOoY6f4ZhGGXLtt0IQRDi+wFBGBKLRlFao8KQhJsY6vwZhmGULZnP53E8l1ArfD9AK00um0VokMULdIZhGMa+J6tqawmUQguwXQdlS5Rt4VVV0ppOoUwINgzDGBSyZes2hBA4XpQRNdXYtk1EWmTSGYSQCMRQ59EwDKMsSS0tglAh0LQ0N5NMJIhGo4U24HjchF/DMIxBYluWxPFcVBhg2xG2bN6CVgrbjpDNZEwANgzDGCRSo1BC40ajBIGPdCLYto3l2ARhMNT5MwzDKFtSRD3ymSxhJkvUi6KCEGwLXwqUNPVfwzCMwWJbUuJ4Htl0BksrtCVwimNCOJZl+kAYhmEMEikAISVCCoK8jx2JkAsDlCXQZjQ0wzCMQWP7mSy+1rhuYWD2dC6H1BAVAkuYJgjDMIzBIoNMFktCLswTCI0diZBIJnEqK8grMxqaYRjGYJGRRJRphx+On/fRfogKAjpzGVqatuJIadqADcMwBomU0RhvL1+B5cWoG3sQXiLOxPHjcZIVaM8xjyUyBkYX/oovxt5SZi8eCOww8EGA0iHSgo6ONjrTndSMHIVu84HCD8q0Bhu9dBUKrSAMaWzYjHRcrEgErRTxeBw3ap6osksKgkyGrVubWL9+PenODv57wQKefPxx/mHuXD5/7peoGT2ayprqoc6pMQjEQRecqpu3NCLdCH4Q4CQ8PC9Kc+M2qkKHTc//BRcTgI0SGpTSvPXaK7RvbuC5J59m0aJFrPnoQ5KOhw4VYyeM5+Z58zjh9NNJ1tb2FCBTkLo1fvARD9z3U15bsoSGD9ejsxmqLYvDR41m6vhxZJEs/nAdSxvreeCRBXz2zDlDnWVjHxOR0w/TAjjssBmsXf8Rjhchm8mCrxgpErz3xIsmABtopRHFG3PefeNNrrn0G4SNDXj5PHEs7FBzyJg6jpkyBRUGpPyAtxoaeWnbVh7+8wtMmH5o77aJA7hAqUAx7x+v562Fz1CZakdua2H2xEM4ctQoRnsulWiEUqQtiyUN9Tz0lzdpdKP866MLOP6znwMhDuj9V05E9IuztARy2SwVVVXkcxnyQYATcRlvVfKXR581AdgAIMjlmXvZZbS9uYzPjR7NRMeiNhbDUQJPSxzl42mFRqOEpM1yWNTUxH1vvs5V//xDrpg7tyexA7RAhX7A+V/9a06adDDLHnqIr33iE0xPVpJUEFMhllZIDRpNIAUpS9JqR1iZSvPYO+9yyFlncv3Pf4bluCCHemuMvSXcLx2jg0wOS0oc2ybn50hWVdLZkaYyJVj/3DIcDtjfi9FFwSUXfI3g3Xf5xsGT+YSAuJ/HQiO0wNICLRSipJYbSEFzxOUPGzbwZFMjJ150Edf/8M7Ch8O0QG1p2EJ7ezuLlyympbmFMWPHcN5Xz8P13AFt0/Xf+x4nzJjOUz+Yx1WzZjM2yOGFGktpBAoQCDQaDUKg0CgEeWmx1XZZ2NDE/Q3rWPTmm1SOrBv07TUGl4wIi4pkgmhNJdkwj9IhWmjiFXEsJ2IuwBkAbNy4gUpLUNPcymHCJpkPcJXGVhpLKwQKS3f1gSj82UpTnc9zzrixnJKMsfTh+Tz8fx8Y4i3ZO6NGj2LqoVO5/PLLmTt3LqlUioMPOZhJEyfx8PyH6ezo3OGy2VSaze+/z+P/+14um3kM4/088TDELu6/gmLwBdAaqcHWmqgKGZvP8sVRdZzuxpk5dQqh7w/+BhuDSkZsiWVJ0i2tVI6oQlTEkBGLdKqTmpE1dDfcmV4xB6Sur33uld/itEMP54wp00gGPpZWfebT/XRZ1NhaUeMHnD95GtN9n59cdw3tjY1oxfAsU6Lnz/Ec/v7Kv6e+oZ7FSxYzf/7DTJ0ylVlHzeKZp5+hrbUNrTRaFfrnfbBmDX5TM5OwGas1ngqQgKD3gavf1WqNhaImzPH1w6czMchx953zhuc+NLrJaCKOAo4+5ihAURX1aG1qwkvE2NS4pef7NdXgA1r9mpXM//FdHFldhatC5G4UCEtraoKAK4/7JEdGXP7zB7cCikJ7xV5GkP0hAGmYNGkSj/3+d2yqr+eOO+7g/v+8n9mzZ3PxxRfz6quvkupM0dbaxvpVazh69ChiYRatVOFPD2wjhNbYKmRUGHLGhIP5+Q/vggEua+yf7ObmZsaMGcO7765CSEUQ+MSrkkSTSeJdY/GYdogDlgDQMNKNMr0ySTTIg+5qr9QDiH+FOSIqZGwmw6XHHs2/PbmQ1A87icfjKKWwLBsQhUDUXda2L3BCUNL/uGSWvr0rdJ/Pd1V2+6bZlZ7oM0/Je601oqs3QvGimUAgpeCsL5zFnDlzSHWmWPHuChYsWMDFF1zIYdOm09jSglVZRc7P4CldWHw3gqhEEw8Czph+GI9taaKzM0UiaZ5ePlzZtuuQDwNCrdC5AK1DIokInU1bscPojn4LxoFCQ0dLC6mtTXxm9mxcpUHoQgDqmWXXyQiQKKpFhPfWfcA3vv43LHzuWYQQCCGQQqJ04UksliWRUhamy9L3FlZx5D7LspDSQhaDoG3ZCCmRUiAQ2LYNguJ8PWnZlo0spq+Ld5uFKkQrjR8EKBUShoX/hypEKYXv+2itUUqhQoXSijAIC69hYf4gCNBaozWosLCcUgo/KLTT5nN5Nny0ngoUP3js/3HxuIl87RNHEFXhgH9eAgiLMb/akoyOJ/j5vfdy/S037eaXauwv7Lwfsql+MxWJBKm8TyIeI9uewvcVlpsoPhXZROAD2eqVq2hvbGKcHcHNZhG6p+a7OyfAChBKUBGNc/TRR/Pje++hoqIC27ZxHRcAKWXh6r8Ku5cTQhZq3cVgrYvrl1KgigNGCVFomJXdnxdq04W+y6K79qz7Kc+6++Ih3Wl11ca7plqycIAoXaarv0L3eosLhCrszivAh+s+ZMEjj3DbLbcwwnb5qwnj+dyRhxPx/d3agUoXDmQgIYRUSysvPb8Ebi4GYPMzHXbsupEjSafTZDIZhCWpHFnH5g0b8VyPXC6HMJ0ND3gdzS0cPnIsXj7AKgkYu9v6qBGkNcQqkxw69VDGjxuPtGXfmYrswkt/QWVHTQR95x1o3aG/Zo1+WJSMj9133u6OC5pNH9Xz9NNP88AD97N69WpmHTWL6667jvffXckVJ/0V5806hpp0O5HiQWWgTRC6b96kJJXNDGhZY/9kp1IpOtrbiScSeE6ELWs+wIlFiVZWEO0YQKk0yp8OmTl5Cq60EGHIwNp+t6eEpA1FfTrNaaedirTk9sF0IEWtv3kGOm1n6e1OMS+ZVwWK1WtW8x//8R889rvHaNi8mRNPPIGbb76FU085hVgiBkC+tYM2P0sm3UkEiSDcrfbfUhpI57LMOOSQ3c+7sd+wAz9PNOoREYKW9jYSVVXE4jGam9vwSJjR0A50AlatXsW6Tevxq47oPhyXXqsaUDK6cGPGym1NTDjiCEaUjg8xTC/kh4HixRdfZN68O3j55ZeZMH4C37/u+5z31fOoGlFVbKKguw4TiceonjqVTek0R8QTWCrY7ZivKRzIqK2kJcjzs/t+PhibZnxM7DD08SqTdDa3Eo9GSedy+EqB0mQy5vTGgDHjxvO7zQ3kZs5EhT6W3v2YqQSkbMnypkb+4Z6fgVUSeoZj7U3Dz376U157/TU+85nP8i//51+YPGVy93gZXUr/JyIWhx51FKtef52/qkjgKIno0/68M4UALOm0BOlxY/j0l8+loqpyeO4/AwBR841Tta9CUi2tOK7LqLFj2LxxE0JLptdO5KV/e4ToUOfSGDoaCEKO8KI8+JUvMTWVJrabzRAaQca2We24/HD52/xu1arhP47BQNuh+3hn6avcfOYZ3HXyKUwIQ+xw4M0QGkGbZfGWVnz/2T/xp4/WUzNqlAnAw5hUYUjCiyIjNjUTDuLDDeuJJSvIBT6pVMp8twbYFn/9rSv5r2Vv0m4J/GIjxMDKhkALyVbb5van/sglN15fHgGjqx2m77RdOOL4TzLxpE/xkdZ0CF3sZbQrEiUkLY7Di37ANU89yWU/mEfNaBN8hztR8bXjdYAmEokUJihd6GsoLJIdsOaxJaYGfKArxoiLPvkpTnM8zhhRRU3gI3WhIlsYhEegBVhaFW7REAK0wBfQ4rj855pVLAlDnn1vZf/B60ChNanGLXzl0GncfvLpTA6zJFRhzIdSovhPCUFgWzTbFk9vbeTeV17l7O9ezR1337Vdc4cx/MhsLkdM2iitsV0HS0OQ96muriZi20OdP2N/UPyd/2bJ87w/ahS/Xr+RD12HDkuQExAiCUVhVDRfSAIhyUjJVsfhXW3x0PtrWRn1eHb58uHf9LC3hCBeN5J7/vQn5r3xKi+l8zRGPLLSxpeSUBT+clLSYQkaIxGWZn1+tPxdXrAcfv3SUub96O7uPsbG8CZm3HShXvP2OwitqRo1kpbNjSRHVNHc0sZEt4b3FjxnasBGN+Xn+e8HHuJfb7qJk0fW8dlJBzOi+JmvLXylaNi2lZWtLbzd2sy6tnamHzObnyx4GHfMmP7bTg9EGjKtLfzohv/F6j88xafHjuGYsQfhCklGhby/eRMftLezdMsWVmXz3PGLf+e8S74OXbXeA33/lQkRP+84HeR9YpVJsATtW7YSiXpY0kZszdL07F8wT/YyetHQXN/APT++m4d+9jPG2g6Ta2txnAi1lVWMHjuKtvYOXlu5ms995Vy++f3rqDj4kELwMAG4oDD0L6DZumE9r/75JR771YO8svQV2jraqamswoq4zD7lFG7+5x8ybtLBheUO5OabMiQiXz5aR6MeSvWMQ+p5Hh2ZHCdOnslTd/wCd4gzaey/sh2dvPjc8/z+oQdZt3I16bZWktUjOPeCr3HRZZfjVFeDJU3QGAgNuUyWMAwIgxDXcXCiUdNsU8ZE9LxjdWVlJa2tbQRBgGXbhCokEU9SmbVY+fCf8MzNcEZ/iuVC6z7FQ1AYuMBcJNp9fTtFmJOGsiYdx6W5uQXXddFa47gOyVicjuaWwkhThrEjJbfwatF3mik7e6RkwHdtgm/Zk5lMGtCkOjtRSlFdW0tbqpNkZSX5fN4MR2nsUq9myV2NpWsMWEksNsqU7SXiBEFAMpmko72DhoZ6EskK0u1poipqxoIwBm5HkcJEEMPol2xv3AqhorlpG5lUirqaWrLtncjiwNLmt2MYhjE45CePPQ6VzhIVkqjtkM5mCZVCOhHGHnSQOXs0DMMYJHLZ8rdBKXKZLNKSZJrbcCIufjZL/YaP+u8Bsw+epWgYhnGgs10tsKMxwjBAhhonFiUMFXbMI65jxdn6XFnZ2WCwpsuaYRjGgMi6MaPJdHSggxAtIPQDsqk0nuMSsSP9PkML+p9kasWGYRgDZzduqseKRZFS0t7YhIw4VFRW0rmliaRTRU+V1lRrDcMw9iUZhJp8Okd7SxunnHM2oyaPJ8CnsrqCbD6DCbyGYZStIT5rt/Na4XkubtRj8aJFSKFJxOPk83lq4/GhzZ1hGNtTmPEhyoSMux65bA4dhNRUV1M3ZhR+4OOHAR2p1ICfezDUR5K90dTYNNRZKAv/9dv/ws/7aDWMC8N+LgwU37rqW6Q600Odlb1T2pPq4yguGh568CGWLF7Se7qAobzbTDpC4lbEcSoSpNIZ0qkstWPGMnLUGCxp7/4DyIdTi4WGx3//OFdcccVQ56QsLF68mCefeJJUZ2qos1KW8tk81157bWHcFjX871FtbGzkwQce5MEHHmTJ4iWEgdr3XVxL0nr00Uf51a9+hQoVYRCilWbN6jXc/oPb8fP+PlzpwMlUPoctLULfJ2LbdKbSaGHTsKUJ2470jqe72jHDKfgWbarfxIQJE4Y6G2Whurqa1994nSAMhjorZSkSibB2zRqklGWxj+vq6jjttNNobmnmyiuvZMaM6dx2221s2LChcBa1LwKxgHUfrOOFF17gww8/5LHfPcZRM49i8uTJXHjhhTTUN/Cju3/ET+/96ZCcxdvJ2mpi8ThbG5vAktSNHs3G9euJWRYq2I0vebgF32LnjqlTp9LUZJog9oUpU6bwxBNPmsflDBIhBXk/XwjAQTjU2dk7ovDcu/ETxnP1NVdz9TVXs+q9VTyy4BHOOOMMkskkN9xwA6effjrxRPFa1B7cY5DNZJk6dSpaFc7lq6oq+cpff4UzzzyTMaPHMH7ieNauXUtYekbRp41dK42QAh1qhCVoqN/MsmVvUltby3HHHbdXz+aTW7c0smXDRvx0hmwqTXNjEyMSFcSjMVTf05xy+l0Vt2XEiBHU1tYObV7KxEknnURz8zakNFeIBovWGsdxhn8TRD+1zWnTp3HTTTexfPlyFjyygIaGzYwbN44vf+nLvPzSy3sUf7yox/333897K9/ju9/9DieeeCI333wzxx13HOMnjgcNjusydswYwiAkDELWrF3LtVdfCxru+/l9XHrppQAIS/DMU88wZfJkzjn7HE444QTOP//8vdoNdlVVklR7B47nYjsO2Y4UKgjo6Ewx0q4gRJHPFY62XTWbwoFoZ7fDbU/rnnn7XtjbeSqln+7dGIelF4c0GiEEUkqqq6vJZXI7yYFG91ld174ovPb+UPedeccJd+ejNM2uNIQQhVdESR76T1vrwilb6XeE7nnKSdfnAKpP/rqGHN2u5qoLy+meFPtdZ5fa2lrefvttOjo6CMPdraGJft4V90OfGsbOatg7u2gshBjANY2SFHbygxdClrwvLNXv976LoCHFLg5WovRt4T+O45DOZMhmsjtfdp/Z2Ub0LfslS/X5nrr2jyVl4XvoW15Lfmc1tbX8zaWXcumll7Bx40ZuufkWzjnnHE455VRuvPFGjpo1c8C5//olXwcKTR7L3lxWWKcArSCbzTBr1lE89tjvefbZP7Fo0SI6Ojp55ZWlzDxqJldffTVaa+6//34atzRy9jlnc8EFF3D33Xfzd3/3dyxdunSv7v61Q8cmgiDwfSwpcSIO+byP7wcEOiARj5MQTtfu6b5gKFRXYNp5gRZQ8gMSfcbpFkhZePx2VwAQiOL8ojAgvCgsI4VESFGYpxg4AaS0Cq/F6fSaVxaWlbLw16ewW5ZFJpshk8nw4x//ZLu8SyEQUhby2KcwFfLce3sK8/QfArq2SZQMsNwVukVx35bun67t7NmLdM8t+vlRdkXRrmDQk5+e/d81XWlV/FyWLFpctu86u77frnT7zFO6X2zLIp1Oc9VVVyGl3K5slO6ZvoFwh8VI95Sx7U71dvMY3L1O3ef//a+21wq2DyaUfLb9tN7zltZW+5SPvpu0k9+TUorly5fTuKWRF198Cdfd2cPC+uz7neR/p/Pq3vtJbHfA2LOG0+23s/ArEKIwCn1XGbWkhdaaFe+uoKOjgxUrVnDDDdfzxz8+gbR2I+rpQqxIZzIopdi4fiO//OUvueWWW6iuruaDDz4ADc899xyWZSGl5G//9m+58cYbueeee1FKceedd1JXV8eiRYuYMGECUS/KI4880l1Z2hO2TGUIBcRcjzyKbCaN43nU1NRgdSqeeupp3KBQ+JVSPQFYd9Ws+ku2pFZYrIV1F+iuL7Sf5boD+g4/60lvp3T/aZXW/LqC3ltvvcVrr77G5Vdc3n9Sume9/aymkEqvfdH/QakrL0qpwoXeYgFTSvcsU1LwdEngKd0erXT3Z0rr4v6g137WWm23r7rTK12HKqShS9ZZ+LyYJ9WzrNKqe/3d6ZVsR1c+l76ylGnTpnXX3rv3vep9ebtvV7Ve8xbXtaN5VZ917vCzPun2Kg9CdJ/G9zpLKKbZM41+lW533++/93y9p23//z7lfQe3+Hd9x9FolIpkkkQ8TmVVZf+Zo7+zhP7PMKCfA1uf5UTJwbf/vHYd8PscXvokW5qn/is0hcqT0qpQOcpkWLZsGa7rMmniJKZMmcqUKVOwLMmvf/0rLrn0kp3ke7vNYNq0Q9myeTPpdJpb/+lW3ly2jFtvvZW62jreWb6cREWCMFTcOe9ObrzpJs466yz+6ZZ/Yv78+cyfP59nFj7DZZd9k6vnzmXNmjUcMnkyNbXVA89DP2w/75PKZgmkwAoVkYiDUpqW1lbqZIKTP31K2T4TTitNfX09yWSSc889d/sZBrrNA6kE7CotXfK6ozu/98V6BpFWmhf+/AK33norXrTPs7T7q/DsMKEBzre7uoMvAz9tLF1mX+ahy26m+41Lv8GcOXM49NBDmbkbp+G7pW8eS8vkXuZ/p+sspl+/qZ577r2H5559jgsvupDLv3k5I0ePLMy3FzehTJw4kcbGRiZPnkwqleKVV17BjticdNJJTJ4ymSlTpnLaaady9TXXkKhIcPHFFyOk4Pbbbuepp5/iC2d9gfvuu48vfelcjj3uWNDw0YcfsfK9lZxx5hl7lCc7yIZEE5XEKyqYfexsXl36CulUGiseJZkouThVhkFYSMHatWtpbW3du23bF/ulb2vDYK1nMGlo3NJI0F/vmd3J+2Btp9jB+4Eus6/zsLt04YJRoiJBR0fHPsvSdnZceR6c70ZDNpvlpZde4qabbmL16tVcccUV/PnFF6muGdF73r24vnv0MUfzzMJnyGVznHDiCSQSCdBw8y03dzcjPPPMQixbcuW3ruw+2Jx//vl89atfJZPN8M6KFXzq+E8xYeIEOjs72bZtG0ceeeSeB2AlBTLnk/VbWfzUM4QCUCAyAemgrfcBrwyD8Pr168nmPq6LGeVNWIK29nZUOMyv0O+vNMRiURzHIe/nhzo3+8S2pm3cdfdd3HPPPQghufbaa3jxzy9i2dagrO/kU07ud3pXk4jV1YOntKZdvI4UT8RZuPAZ1q1bxxNPPMmECeOZM2cOdsTe4/zYkXgMnfMJVUg0HkfbFplMliAXkiv3h3Jq2LZtG5Y1OF/2AUfDzJkzWfLCEr549heHOjflR0I8niCTyeJ5O7sAt59T8M6Kd/jetd/jpZdfZtaso1i4cCGf/vSnBy3wDpjs89qXgIMPOZhv/8NV+2R1dpBKIRFoIfA8l5at27BsGyfiodJh+Y75UazaZzKZgXcbM3bpj3/8I2+//T9DnY3ypODYY2dz6qmn7KIHxH5OwJgxY/jNb39LJGKTrEz2blsuwzPtHbElGsuJYHseze2tWF6EfD6PbbskPW8PO5kMA10XFDR70GfV6JcAy5LMOnrWUOekPEk459xzhjoXe09ATW3NdtP6fV/mpLQshBMhnc3gRBxUqLAjEZLJJPl8rnwDcJFlWdTV1g11NsrHAfTjMYy9ZTuxGKnQB0sitCbI55FCol0fJxIZ6vwNLgGXX3E5p5566lDnxDCMA5CdC3xUNkcY+NSNH490IrQ2bSWdThFRDt39xsuxZqPh0r+5dKhzYRi7r1x/kwcY6acyVHhRXNth65ZG0qkU0WQFoSWo7er8DHt6x+H+zRRgYxjKZXM0NDSU52/yAGPbnkNoS3TUwRICV9pkshk0At/3y7sGbOwbxUCQy+V6X503ZWbf0pDN5vjCWWdRN7KO3/72t2boz2FO2n4IQciomlpsaRGEAfF4As9xyWdz5d0P2Ng3BDz++OOMGjWKf7zuH/nud75buLvQ2LcE3H777Ty/eDFSyh0M+2QMJzIEgnyezQ2bEVKSUwovHiUIFS3NLYXeWgfA96wVvLDkBTZu2DjUWRl2ctkc3/nOd+jo6ODx/36c+fPnc9DYg1j13qqhzlpZ0aGmpaWZww6bURxg3LRBDHcy4rn4YUhEKTLbWkhIm62bt2BbFp///Jl0DwRW+leGHl2wgNNP/wxvvPHGkD6kbzhatXIV69ev7x5Mu76hnukzpvPtb3/b7Mt9SFiCX/ziFxw7+1hc1zXND2VAKiAai4Ft4yRiyIiNCkKUUixctBBJz3invYalLRcaUp1pLrjggsLwhKa9e7fddfddzJkzh9tuvw3LtrAsi3//91+yatWq7YaHNPaSKLS1jxs/zpTTMiAdyyrcCaY0YaioG38QEw6ehBfzGDdhfE88kmx/u+Bw1M9weplMmnl3ziuMjmQK9cBpCPyARxc8ykUXXtRzhiQgkYiTzWXNbd6DIAgCol50qLNh7AMyq0KsRAzpOQjLYt3777N+4waUUGzYuKEQj0rHRC39G6a2Nm1j4/qNNGxqoHFzI7W1tXzzm98EIYb3PfYfN1EYYF5pxcSJE3uVi+eee56DDjrIPB9uECil9upBkMb+w9YCHMtmW+c2Kmqq0TmfIJsll8kyKlky4v5wPzUvHkS2bdvGjBkz8H0fuzjy0qOPPsqM6TPQWlNZWTm8t/PjpAu3cmutaWxq7J4cBiE3XH89V19zjWmnHASdqc5dP0vOGBZsy1e0NTYRj8bQGjL5HAKBjSCfLbOxIDSMGFHN0pdfBqCiooJ0Os2kgyfR0LC5+MiX2BBncnixLIuKRAU/+clPOPvscxACzv7i2Qgh+N6115qD2SCYN28e1dV79ygcY/9gO66DZUlCKfFTaXQQUldbw+aGBhJObfn0Ay6eHksEUw6dst3HYRigtCr/8aBumNYAAAPuSURBVC/2pWK5eOSRR/jcGZ9jypTJNDVtJZNJs2LFCmIJczAbDEcfc/RQZ8HYR2SoNZlcjmwqRc73GTNpAlZFAsfz0GFYFrF3IFRYeBCk63m7ntno5fTPnM5vfv0bAC666ELq6+uZNn3aEOfKMPZ/wv38kdqtrsQRkm1NW4lEPaKJGFkVMjLrsvZ3z+MMdS4/BjrUvLdyJdOnTUNasjxq/YZh7NekEuBJm8lTp+I6Do6Q5Fs7sPMBfiaz/RJl1SjcQ0jBYYfNKARfwzCMj4EdCQXtW1v4yN2EdFzymQxWJILKB1hWvDBXySOjy7ZmWK7bZRjGfkvqUJH3fbZu3ozUGrQmyOWwIxEirtPTD1hhgpRhGMY+JJUu3P3muh6WZXPk0bOwYlESI2sZUVNjbuU3DMMYJLYX89iyfgOO64Dr8vbb/4Mdcdi87iPcaF2hydfUfA3DMPY5GSqFtCWO65DpaId8gKU1FbG4GQ/YMAxjEMkQhW3bEIRUVFZiWxbZbBalFLlctnfsLdMeEIZhGEPBTo6sI9SKfC5Hrj0FWiOkREjJyLqaoc6fYRhG2bJbNzcRoNFa4zkuSuWxNYTZPC0d23oqvaYZwjAMY8+UjihZQnrJCiLCIh7xyGcyCK0RQMzzCk0TfRMwDMMwBk6DVv0HUJlNZdACtBQ40ShCSoIgIJVOmcG0DcMw9pJSijAMaWlp2a4iK/Mdncw47hiC4iPotVJIKdFaF56UYRiGYewFgZSS4z95PI2NTb0+kU48wYolryCUIN+ZoWbUGHylUEIS8+I9TRamDdgwDGOPrX1/LaecfDIt21oKEzRIlfdxHBfLskBpttTXE5EWUlOoCQ9tng3DMIa9UCkEgvdWvcenTvgUrc2thQBsuw6BCvEDH891CbJ5gkwOHYS0Njdjrr4ZhmHsOSkLI5lpNNUjqpk7dy7L31lOEIZIpUJCP48KQ4IwQKM55NCp5Pw8QgiEaXswDMPYcxqEkLzxxhvceOONNNQ3MH78eDKZNFJlc4QqxM+kCUMfx3NY9+GHRCIOmAcqGoZh7BWlFZlMmlgszpw5Z7Hg0QVUVY2goqICKdCMGTuG2cd/EltaIGThsddCmCfaGoZh7AMRO8LUqVOorEzyhz/8gTAMALCDMKSzvYM3N74OSmHHoniuRxiEBEEwxNk2DMMY3qQl8WIeKlDU1NTgui4VFRUgwPaiUdrb24jHE+hQoS1BLpdDB4qI7VHej8EwDMP4eEhL4tgO1U51z7RcPs9xnzmNnO8XbrzQEPU8tCqMkqbNkOyGYRh7T5S8Ft9LV1q8+dwSLCGwoy453yeTThOLx8jn86YXhGEYxiD5/9UVMrdAC3mgAAAAAElFTkSuQmCC;movable=0;resizable=0;rotatable=0;deletable=0;editable=0;connectable=0;" vertex="1" parent="1">
                    <mxGeometry x="170" y="20" width="352" height="108" as="geometry"/>
                </mxCell>
                <mxCell id="3" value="" style="shape=image;verticalLabelPosition=bottom;labelBackgroundColor=default;verticalAlign=top;aspect=fixed;imageAspect=0;image=data:image/png,iVBORw0KGgoAAAANSUhEUgAAAXIAAABrCAYAAABqignuAAAacElEQVR4nO3de3wU9b3/8dd3ZncTSEICCiIXoVwEFZBLUapYL1gEe6y1tV6oivUCbY/nWK0iVbAe67UKLVLU/k6L1AsHK8VaQSgVEW0F6gUURAWCgEAuEBIgt83ufL+/P2Y22Ww2lw0JyS6f5+ORR5Kdmd3vfHfmPd/5zk0ZYwxCCCGSltXWBRBCCHF0JMiFECLJSZALIUSSkyAXQogkJ0EuhBBJToJcCCGSnAS5EEIkOQlyIYRIchLkQgiR5CTIhRAiyUmQCyFEkpMgF0KIJCdBLoQQSU6CXAghkpwEuRBCJDkJciGESHK+ti6AODainx6i2qwUSSb2kSsGt+ljcCsx8luINiYt8lRn3B9FzY9oothKU2DCTu1xvPoVoi1JizwVRbcYQw6FhYX4An58fj+O1mR07EggPU1SvT6RcLbAKa9k//4Cvtq9i4ojZfztL0tY9tpf+e877uTiyy6jW6+eZOd0lroUbUrJMztTkKP5cO06Dufv583ly3nzzTfZvjuX7EAHdChMz96ncP+jj3D2uAvJ6dbVnUaCqJa8Hbt48enfsf6tNeTv2g2VZZwQ8DG4W1cG9uhNBYpVO3fyfkEezy9ezLhLJ9a0zKUuxTEmQZ5KHMNnH33A7TdOxhwowl9eQZZl4Q859OvVgxH9BmAZQ2llkA/z81lbXMQr766h18BTQSkJIMCpCvPQvfeyceU/OLHsCFZRMSP79GVo95PoFvDRSRl8Gspsm9V5ebz40UYKAgGefWUR35gwASzLrUshjiEJ8hThVIW5/Uc3cuTDj7ioR096KEWvrEw6YLAcTZpSpBmD0hpHGUp8Nn8vPMD/27iBnz70MLfeeYf7RsfxAbxQsIprrvwBFw0YwAcLFnDNsGGcmpNDlhOig6PxY1AGQBFWinKfxSGfn8/LKliyeRN9J05g+ry52IE0lCWHn8SxI0GeCgxMvupqnM++YHLvvgz12WQ6IWwTxsJ4e/wKBVgGjDKEgAN+m2V5+bxWUMDYH17PzEcfAU3SHgIvzC+k5NAh3n57NcXFJfTs0YOrrr6KQCBQM1J9GykD0352JxeeOZylD8zkJyNH0TMcJt1xsNFegEe9jVIYwMFQZdkc8PlZXlDAc3t28o8PN9L5pG6tNZtC1JGkq6yItjM3l65pAToVFTEo4CfbCZOmw/iMxkK7QYRGeUfxlHGPcncNa/7j5O5cnJXDuj+/wst/mJ/US0S37t04ddBApkyZws9+djuVwUpOOeUU+vXrx8svv0xpaWn8M0wMlJeWkb/zS16d9SS3jBpFr6oqOjph/EZ7G7+6kykUASwytKFnKMwV3bozrmMmwwb1JxQMtvr8ChGRxKutAMDAvbffwYWDBjP+jMFkhUPYRtcZzaruFnApwDaGrmHDpP79GFJZzm+m38OR/AK3Vd7QfpqJ+Tv2/7amIC09jVtuvYX8/HzeeustFi16mf79+zN8+HBWLP87h0oO1To4mbttG7roIP3QnOQYOhhv7wWvtylmvowxGKNxjEYbjaUdssNV/GjwUPqFDLN//UT7qAtxXJAgTwFffbGNRU/M4vSMLNK1RpmohDJWzU8U5QWVT0OXkGbq2WM4LeBj/kOPgo7ZEMSGtYp6TcWM19761xX07duXV/+6hH378njssceZP/+PjB49muuvu57169ZTUVbBoUOH2LVtG2d2O4kMJ4xqdGtWm1EGn9H0CAcZ36sP8x56qP3VhUhZch55stPQLT2dUzKz6KI1PuO4LyZAoeleGeTmEcN5+o0VBB9+iEBGR7AURimU8U7E0GAwKJT7W6lar1UHfN0PqB3y8TYCTQ296HPko6eL3nbp2EEGZRS2bTFhwiVccsl4SktL2fLpFha/sphrrrmGoaedTmHRAezsHMqrgqQnUCRwN4wKQwc03z7tdF49UEBFaSkdMjMTeBchmkeCPMkdOVhEaVEBE0aPJl03Z19eYxtQWOT4AmzZmcv1k69nxZursC0Flo1tWyilUMpCKbAtG8u2sbwDfrZtY1kWlqWwLAuf7QPlvq6U+5r7tzeOstzhlo1lW1jKwvb5sC0Lq/qzFMaAMRqtNaFQiHA4jOO4V1aGww6OE8ZogzYax3FwHHfccCiE9tLccTSOE0ZrdxytNcbgvuZoUFBVVcXeXbvphOHB15YwuVdvrhw6hAxU1N5N04SMoZNlcVJWJnN++1umz5jRjO9EiMRIkCe5L7ZtpSQ/jx7Kwu+EMcrU6c9tjNvCtnC0Jjs9wPBRI5g993ekp6eRlub+1MdSFtoYjDFusBvvfgAo99R0pYicMaONqX5NKYXWuno8471HvWWMOTdb4X6WO4U7rYp8ftQ0xtu4Rc4yAYNt2WijMcaQm7uDvyxezK9++Uu6+NM5r3cPvjVkGP6qKlScYw0N0QosFD4dpvxACW+vfJPp982IFFiIViNBnuRKiw8yuFt3Mo2qPivFqLoH5xqildsjHFQWHTp1YuCgwfTq1dMd2FAAxXaX1Ndf7v1tR/723teyGzhE01h/e5wuFqNNTeDHlgV3+M6dO1m5ciULFixg67atjBg+gp/f9XN2fL6VKWPP4+oRI+laUUGaV4GJnpyrAK0Mts/G0TF9PEK0EgnyJJeGxbCBg9wv0pjEMkNp70CowVhwIBziQEUlF154UdPCp6E+7vqGNSX4Y6eJF+qq7njKUnXG1Y5m6xdbmf/cfJYsWUJBQQFnjT6LmTNn8s3zzyczKwOA0OEyiivKKSuvAO/c+0Tqsub0RIswmtLKCk47pbfcJVEcExLkSW7zp5vZmbeXYE4nsuo72FgfL32845jkHiym15AhnHDCCd5wb7x4IdTAwcZa49QXYA0Ff2PjNsQb1wlr3nnnXR55+GHWrl1Ln76nMG3aXVz5/avo3KVz7a4aA3aHNE4Y0J89peWckdXROwc/gY/1TlV0LAu7WzdKtMPcp+clXn4hmkGCPMn1OKUPL+flER4yBOM4WF4TsGl57vZVh1GU+Ww+O1DEbb950m3ZuoMbmrTh/xubvhU5IZgzZw4ffPgh3/rWJTzz7LMMGNAP936+ca/swfL5GDxqBFv//QEX5WTSMewk1K9ivJ2BcltR3qMHYy//DpnZOS02T0I0RC7RT3Yhh2GZmSy47DIGVVaSFnYwCZx+aJSi0vLxWcDPY5s38ernn4Ftt2KBj4HY/nNo0kZl09p1zJx4KU9ecD49qoL4EzgLSHsbw48w3PnmP1jz1R46d+2aaMmFaBa5ICjZ+Wwuv+lmXvjoA4otCCf0jSrCymJ/IMCvVrzB9ffdByoFFono/vMEnqYxdMwY+pw9mj1AVQJ3gzQKDvkC/DMU4vZly/jRAw/VDXF5AIVoRdIiTwWO4Ydjz+NCn49LO2eTEwrhw2B5F6koo3Ciu4SVd6aKsSgO+PnDtm2s1g5vf/aZO8Lx2qdrILT/AN8Z+DXuP/9CBmuLjqFKfF59aAXezQ680x81IRsO+i3+UVTG4+vWcsXt/8kjjz2B5UuBDaJIGhLkqcAAVSHuu/4Gcr7Yynf69uUEJ0iG4+DDveOT9s7tNigqbEXQttlbFWTFV3vYnJ7Bwn/9E5XmP77PsDCANmz/4EPu/u73ufGMgYzIyCTHCeM3Ye/qTfeYQoVlc8jvY3tZKctycynu3Zef//oJhp816viuQ9EmJMhThQEddlj83PMsuP+XXHBCDuMG9CfDONjG4BhFpRNmX3ExWw8Wsbn4MLuPlHLqyBHMWvxn0k4+2X2f4z2AvBCuPHiY2dPvZvMby/hm95M5q0dPbKUIaYft+fvYeqSUtXl5bA9W8ui8Z7jyhhsh0go/3utQHHMS5KnCCyDjGPYXFjLn0Yd5fu5cegY6cOqJJ9ExYJGVmUXv3n04VFrGPz/9mAnf/wFT7plORt9Tao6WSAjVcByK9ubxwZo1LHrhef69fi2HDx/hhM4ngG1z1kUXcd/Dv6JPv/7u2TCRNUl6VcQxJkGewqqOVLDurbf58/N/4svNm6iorCQjpxNXXnMNk265BX/nHPcMFQnvRhjQhmBlJaGqENrg3rqgQ7o7OFJ/kZOFog+wJnjmjBDNIUGe6uJdQQkSKs3R0C0JmjItCU4jRBPJBUGpLpErKEXD4t0+N576mkZS96KVSJALkYj6wlj2a0UbkiAXoiXE676KN0yIViBBLkRD5GClSAIS5MLVUNdAS7U24z3381hrbnmPZhq5QCh5tcYy2grLQmJnrcgCeWw1dmCtpb+PpoS5dBsI0QJaduWVFnl71tj33NIhmujDJETjZMMnjgG5Bk2I1pTA3RfF8aRlF4rEWuSyQAqRGDktURwD0iIXbUfj3XGQ1A+8tmqZR9WvE2r6A0dEjHa+fEqQi7Zjwa5du92/U3Vvrx10rQSDQf73f/+AnYr3SG/lgA1WBHHCTpt/h41JwW+2lWl49513ObD/QLvfSrd34ZDDT3/6E9a8s4YEnk4nErB3714OFB1g6dLX230YNUXxwWL27d1Hfl4B4Sqn1T9vwMABTL9neq3XQsEQhw8dbvXPToQEeVNEBbbWmrvuuouKisq2K0+KsC2LYDDIokUvEwqH3RePxcbxONoA5+3L48sdX+L3B5K+C8toQ2FhIY89+hjnn/9NRp91FvP/+BwF+YUt1xAwNb+NNqSnp/Ppli28sewNXl3yV3K35fLIo48wbNiZFB042Pz3b2ES5E0RVfmWz6Jbt27YdjOqziT4k6wa6/f2Xle2QmuD4zioyNPtm9NqTLTe4n2Gifmd6Oe3U5lZmezdtxefz3bX9qbWr475aQfzqCzFoFMH8dRTT/HJx5/wzNPz2LDhI84951wmXnopS19/g4ry4NGVVcGRw+VcddVVjBgxgp07d7Fy5d+59tpruX/mTN5a/RZTp0xl3LhxzJ//x4Q+Szutt9sp55E3RUxmZ2dnYzX0kOL6LutuT7u2DZ3f3Nxh0cMb6huOurho7LljycvLw7KOonKOtl6behl+fddwNPb50RuYY9Vn7pU1PS2d/fv3o5TCaINqaj231yaeBXj3gx/zjTGMOWcMOqzZsGEDL774EvfPnMGQoUOYNu0ehgw9o1m3G963dy9r1qyhT58+ZGZmMvbcc3lp4Ut06tSperQ/zv8D2jEY4z7BFQPBqiCBQICSkhJ8Pj9ZnTIBCFYGufnmm3n//Q/Iysrk9ddf5+QeJ7d4tbSc6FZRO9mKt4bOnbugLHfFiNtySfDp7W3FaOPOQyxF/fPQ0LDY4U0wZswYtm3bhmpow5ioRPdyGitvZNrmfp8Kd01LpEV8tLxbIKSlpbFvX74b4l7gJP0eYKQ+vbq0bItRo0fxmzmzWf/v9dxxxx3MmfNbTuxyIlOnTGV35IB6Ew0aNJCvvtrD+vXrOfecc8jMyiQjIxNjjPsULmP47uXfpbysjPnz5/O3v/2NW265he7du1NcXMyQIUM4a/RotKMx2nDmsDNZuXIlM2fOoKKigsu/c3mLV0mLtchXLF/B/PkLCIfC3sw6RNYQpdy+ZWPi71oYY+LudhjcLV5kHPfHfapWDe+J5u4E1dNEtpSRFogx2nuNqJVJVf9vUTMgMr0TKa+JjGvQGLZv387HH290+x2rP91yhxqD1UA3Qc38uP/XrhdVu/FrjLd+1V3LjAGtow/2KLRTs6AZY1Aq8n5uyWvXWk1duU+EN9UDIt0cbrnqzkTkvY2hpk5j5i/6gxq6C0RpaRl79uxh9Oiv1xpPKQtjdFTA1ywLClX/nkCdfxtIqJhbIERqy8QZSan49VDdTaRUvG8p6nuoKXP1exkADcoCYxE9W9HvZYwTf57dyq35r1YZNcqy0Y5h777dhEKas8eM8caLPz+xr9Uqd1SB3OWG6uU8sowqpeK+rzsPpt5htT4r6n/LsmLqoe68Wl69R5ZDg8GybJSy6Nd/AAsXLuKFF1/kJz/+MbNmzWp8o+0ND6T5AQikBQiHw9i2hdGG8tJyOmZ0ZPnyFZSUlLBp0ybWrVvHxg0b0UYzfvx4ykrLKC4uZs+evfzf/y0kNzeX004/jVWrVrFjxw5uuGFynWXvaLVMkBvD+PHjqaioYMmS17wv2KBrBXfDK5SOCfnqwI7TEqoTDAa0iazo3gTVwRS1ajSwsltxVkgTlccKhfa2yNu2fUGXLl1IT0t3X4sKQqWo6SYwUcEd/WlR5Te61hC0NtVlNzEFNjq2TmvPTPX4kb8j/xqDMSp2dG/jpsEYtDHVVRVbv6Z6PkzUxrL6g6KqO+ozozao0e9Tvdp7IZiRYUhLCxDwB2qPi0EpX01hY0OQ2kETHXRGe6HhbcgiG/PItMp7vqb7XdcN2jqf427dsCxVPa6Jmvda5VA1jZfqYFKR0Isax+CWr3q+LHecWiEbeQcLK2qHJXp+aoWfVZNSCvD5AmhjKK8opyoYYsiQIVheQEZvvKJDU1XXmVU9D8pSterOtmoeDxiZX0spLNuunofo91bV82XVauTYll0zLygsu6aZrZRy+/Wjv+uYMtR8fzXz6ziaUCjMlzt38tz8+QwfcSaTJ9+AUoaDBw/S5cQuJKJTVicKCgsxxvDwIw+zaNEiPvlkE2lpAd559x2Usnj//fcZN24cq1a9RX5ePps2bWLosKEcPFjEgw8+yIwZM9i9ezc7d+3kuuuuZ968eXU2jkerhVrkBstSXPG9K7jie1fULWBTtjqx00R3UbQnBr53xZXM/d1T9OzZI7HytfBWuPUdTX9CI2+L+9aHSg5z00238Jclf669DLRVHR3NLMdO20rVl0hZwlVhbp0yhYryCn7/+2fx+eOs8oZaDYi6g03MIBNnY+82Quo2smL3b2pv2KP30mM3/NHLgza1y2dwMMbyWvpQXl7BihXLeeaZZxg8eDB33X0306ffjVKWt6FS5HTOiTt/DRk9ejQPPvggT897mrlz5zJnzlNYlqJ///7k5xfg9/no3LkzCxcupH///ixZsoRevXrx9VFfZ8uWLShlsW37Nl54/oXqBo9lqRYNcWipII/s/jYnwOsbt52GXTjssGfPHsrKSr0yJrC2ttN5ql9LFTi6jqL6xgyUl5eze9cu9/hCezjAdjSz3N6WYW+vo7KyklDIIRzW+PxxxlNg2e2x1RTDRP/h7gVv376d2bNms3TZUr4x5hssXLiQwYMHo+yWmZfrrruO/3nwf3js8ceZNm0aP/jBlQAsWLCAPn36UFlZyeQbJ3Ni1xPZvn07Xbt2BeC5557Dsi1mzZrFf912G5Zl88MfTmLnlztZvmI5JcWHWP326phu4uZr2bNWWmM5iJeTbdpyMxTuz6egoIBTB53aFgVIQvXUkYKSkhLKyspwHI0dfcCzpas16faGjpK3627bNuGwg6OrvONWSSrq+wtWhFmyZAmzZv+azz//jPPGnsfq1av52te+hh3VHdMSsnOyyduXhwG3q8dbfs4cfmb1ON1P7g5A125dq1/r3ac3AFOnTqFfv378eOpUlr/xBmnpaYwcOZJfP/F4i4U4JMPph/Fmtg1XRmMgHA6Tn5/fdoVIOvVtjd0zfw4fKaG09AjZnbNbrwjHS4DHUVVViW3ZDR50bvcUVFZU8sADDzB79mwyMzO57bb/5L1//YtAIL319uYU2P6j2Dgo+Nb4i8ndkVt9LFAp1fTTQJuo/Qd5O2O0JqNjBkVFRW1dlCSi4vzt/j799NO4794ZlJeXt26QH4+83hKfz8dtt91Genp62/bbH4VDJYdYu/Y9LrjgfK67bhKnn34GVtRB11bVEnXmfRdWK21xEntCkKCstJxzzz2Ha6+9lnvuuScpV4p25Xjr8mgLkbNII2dKJGNdRy8nyToPrUha5AnS2qF3r96EqkKyMLUEqcPWF90ITNb6jrdTJ6q1h/MEkotxD25kZmW2+ClEQgjRHNK1kigDoVDIvWAh3jm5QghxjEmQCyFEkpOuFdE+SHOi9RhY/Mpinp73jDzAI0VJkIs28+nmT5l0zSS2fLqFLVs+o77byIij89577zFp0iQ2btggBwpTlAT5UQpWBOPfClY0wvDtb3+bRS8vYsSIEQwbNpSLLx7X1oVKPRomXDLBvcum7PakLAnyZjIa5j41t/ryXJEAA+/9cy1fffUVl/3HZezI3cGbb65i3dp1PPDLB9zb8YqWYcHHn3zCyJEj5fzrFCZB3kwbNnzE3XdPw3Gc+m4aJ+qjYN683zFx4kSWvPoqPXv35IILzudHN93EggULvBs4iZbSu1cvjDb4A4G2LopoJRLkzTR79mx69uzh3pZSgichleWVvPLKYqZP/0XNs08VnH32WZSXlUtXVQuzbZuqqio6duzQ1kURrUSCvCkMdR5d9+JLL/LSSy+5QSS5k5CDxQcxxjBs2NBadbd582aysrIafJKMSFzYCVMVqsLv98uymqLkipbGGFi//t/cd++9pHfoAMaQnZ3Ns79/lsOHDuOPe4Nn0RiDIeQ9FhDACTk8/6fnufrqq6Uft4UppaiqqiIQCEjdpigJ8ibonNOZCy68gLS0NGzbpkuXLmRmZJJfUIA/4JeVI0EdO3YEA8//6U/ccecdoOHuaXez/8ABnpz1pByUa2GWZZGenk7v3r2lblOUBHkTnDpoIDNmzKh5wVsZCgsL8fl8snIkKCcnhwkTJ/KLe39Bp+xOvP766yxduozXXvure9sD2f1vUZZtsXHDRmz7GN32VRxzEuSNqe/BFgY2bthw7O6JnEoULF36OqNGjeLWW2+lZ4+evP32asaeN7Z6uGhZ/jTpAkxlcq+Vo5C7PZdVq1YxZeqUti5K0gpWBklLS3P/kQAXolkkyIUQIsnJ6YdCCJHkJMiFECLJSZALIUSSkyAXQogkJ0EuhBBJToJcCCGSnAS5EEIkOQlyIYRIchLkQgiR5CTIxfFFrmMWKUiCXAghkpwEuRBCJDkJcnH8kG4VkaIkyIUQIslJkAshRJKTIBfHD3lwhUhREuTi+CJhLlKQBLkQQiQ5CXIhhEhyEuRCCJHkJMiFECLJSZALIUSSkyAXxy+50lOkCAlycfww1IS3Aa01u3fvBgPGSKqL5PX/ATcwaMCeUlezAAAAAElFTkSuQmCC;movable=0;resizable=0;rotatable=0;deletable=0;editable=0;connectable=0;" vertex="1" parent="1">
                    <mxGeometry x="170" y="170" width="370" height="107" as="geometry"/>
                </mxCell>
                <mxCell id="4" value="移动时间轴,&lt;br&gt;让小球停留在&lt;br&gt;动画中间某一点" style="text;html=1;align=center;verticalAlign=middle;resizable=0;points=[];autosize=1;strokeColor=none;fillColor=none;movable=0;rotatable=0;deletable=0;editable=0;connectable=0;" vertex="1" parent="1">
                    <mxGeometry x="35" y="170" width="110" height="60" as="geometry"/>
                </mxCell>
                <mxCell id="5" value="" style="shape=image;verticalLabelPosition=bottom;labelBackgroundColor=default;verticalAlign=top;aspect=fixed;imageAspect=0;image=data:image/png,iVBORw0KGgoAAAANSUhEUgAAAWUAAABsCAYAAACy/aPHAAAc0UlEQVR4nO3dd5wU9f3H8dd3Zsv1O4qA3qEgcgQEKSJYg9GI3ZgYbCSaqLHFn+Wngi0CiQhGbKDYggpq7GAsERTBRP2JKKLAoVKleIV6x7VtM9/fH7O7t7dc47jj5vDzfDyWY3enfKe957vfaUprrRFCCOEKRlsXQAghRA0JZSGEcBEJZSGEcBEJZSGEcBEJZSGEcBEJZSGEcBEJZSGEcBEJZSGEcBEJZSGEcBEJZSGEcBEJZSGEcBEJZSGEcBEJZSGEcBEJZSGEcBEJZSGEcBEJZSGEcBEJZSGEcBFPWxdA7KHE58SoJnTXUDdCCNeRmnJ7FQtbnfAi4bO6/i/qpxP+Js9PIfYhqSm3R4qa0IjYbCkpxvR6Mb0etG2TkZ6ONyWlLUvoftH5F66qZvu2bWza8AOVFeW89685vPn6bK6/6X857Zxf0Tkvl+yOHdq2rOInRcmDU9sZW2NbFks+X0RlyVYW/nsu8xcsYM0Pa0j1+kBrcnO7M37y3zlyxPF07NIFDCXNGDHRtb1o/Q+8NG06iz75Lz+uXY8RrKSDz0u/rgeQf1AeVSgWrFvPF9u2MPP12Zx06kinR5mPopVJKLcHNk5Dkw3ffvUFN/7hEuxt20mtCpKuTJQVIf+grgw69DCUrakMhlhSso3Ptm/hlY//Q/f8Pk6Y/NQDRYO2bCaMHcs3H3zAgZVV6O3bGdyzB/26dqFbSirpVhi/hoDh4cPNm3hhxdcUefw8PXsOw0eOdJaDRualaDUSyu2BhnAoyA2XXUbF0qX8omsXDvH46JaaRqoyMewIKWj8to1CYStFmcfDvOJCHv/6a66+dxJX33gjoBo+irCfHxwMBUJcPGoUJ/Y+jK9mzuLCwwfQOyeLDB3Bb1l4NZgAWmErg3JDsdNn8n1VJbOXF9DzjLO4c9pUzJSU/XYeibYnodweaLjkglGEVxRwWc9eHG56yLAtDCuCB7CVxtSg0GgMwMBSsNOreKuoiNd/LOLnv7uEcZMnOcNrp2dtlBSXsGvXLhYuWMjO0p3k5uYy6rej8Pl9KKPxAo+9+WZ+MaA/742bwDVDh9EtGMJvhTGxAVC1tgSFRhE2IOwx2aEM3i/eyj8KNzD3yyV07tq1dSZS/OTJ2RftwIZ1a+niTyGnrILeHh85kRB+K4IPjak1prYxosFiaFDYmNqmY9jmnANzOS07h89ee42XnnnOGWBDu+EWbeZo2VMZunbrSu/83lx55ZXccMMNVFVV06NnD3r16sVLL71MRUVlvf1WlldQsm4Nc+6fwqWDBpMbDJJmhTBtC6WTA9mhUPhsRWrYpks4wtkHduGklFSG9s0nHAq1yDQJkUxC2e00jL3pJo7L781pfXqRHQmiokEXCxJDO4tRRXtQWmNoJ7A7hMKMPqw3RwSreXjsrZQWb9l3p3tp5bz2NuWTT/EzICU1hSuv+hOFPxby4YIFvPLqq/Q67DAGDRzM3PfmUbqjFG3X9LhuzRqsrTs4TBnkavBZEZTWKNVQ2WxAY2jw29AxbPOH/oeTFwjz8OT7ag1fiJYioex2tmbd8uW8NOUh+mXkkG5rPLaOBrEZfSnQRjQAE2k8aDpFIlw3/GgO95o8M2ki2Pa+PQ93byvLsVMA6zjApgxFz549mD17NoWFhUyceA/PPvssw48ezujRo/li8ZdUlFdQVlbG2lWr6Ncll9SIs9Pa00J7LIuDIhZn9jiUaRMnNhLoQjSPnKfsZhrQFrkZmeSHbbJtC6Vjp2IkBkLiicsJn8Y/suhSHeJ3AwfzzDtzCdxzL760VOe4n+Hsl7V2/lGmwrZsQGGYKj5Yy7IxTWP3UUVrrralne5jxYsFqGU53RlmTffJxY4OA3D6T7wwJlrRjh/6iO14tAalUAq0pUGBaSjOPONMzjj9DCoqKyhYUcArr7zMG6+/Qf9+fdlaVoqnQzbhYBi/3dQaiV3rXWrE5NSf9WFOSSFV5eWkZWU2aShCNJWEspspqCzbSWjbDk4fNoyUSBCtkts/m1oNVXQy/RT8sJ5LLr2EeR/Odz5VBh6PiWEYqOihQo/Hg8f0ODVBBUopPKbHCT7TRCmFYRi1XqZpYiijphtsOmg49+jjOPiQHjy/YD5bAgGnO8NwSq1ttNbYtk0kEsGKWITDYZShsCyLSMQiEolg21a8O9vWWFYEy7Kj720ikTDa1tjaxrIs0GBrZ5haa8LhMJs2/kAmcM/sV/ldbncuHjCIFB1p4ryrLUsrcrOyePzRqdx8+52uPCgq2i8JZTfT8P2q1ZRtK+RAZeHVdp1NFI0Fi9KglMYEclJSGHjkEB6cOpW01FQ8Xg8pCVf/2bYd/1ke/5uQOvEaqyLp57vTla3AVMo5tWzDJub8dQLDjx7K8N/8muwDu2EbTtVXR8tcbxOArvkTC29F0kUwmnhtGR0tW+w9TmV6zZrVzJ49m4njJ3CAx2BE91xOHTAIMxjaqyaV7Vu2sHD+h9x8x51y3rJoURLKbhUNjMqdpfTqdADpFpi2ata2byuw0ISUIj07h/z8fPLycls2SGLBFPsbDLF46iNkhYI8/MQTqO6HMG7ceDxeT93NFk0ZPtQRytH/2mBZFoWFP/Lev9/j2eeeZc3qNQwaNIhbbr2F1QXf8qfjjue8gUeSU1mFqfauodswTQLBYL1t3UI0l4SyWynABq8Ngw7rg1fH66L19pJYia7VxKHBMmC7FaGouoITT/xF00JkT8JGJfy1NNvfeJMDNm1C+zxgeJk4aRKm6eHOcXejDAOV3Cze2Hjrq1DbsOr775nxzDO8/vprbNu6jaOGHcXdd9/NiSeeSFpaGigIl1VSHg5TVR3ENBRqT0/PV7E575z7UhUO0b9HD+c7OVwuWpCEsltFa5EF33/PhuJCdIcOiY0ICXU8539aJdX7om3PWoHCaetdtW0rh/Q7nE6dOtX02lDoNrf2t24dJXPeJC8YZqfHjDafKO6+ZwLVVoi/jp+A6fHUf8FHE8YbCVv836efcs899/Dxxx/Ts2dPxo4Zy29H/ZZOnTvtVoP1pPnJ6XUI6yt20S8rC79V/86tLjU3kVOYnXMoC4V4eNq0mi+lpixaiISyy3U+KJflP26mum9/MhSYOh7DjfbrBLXCBio9Bit37uTaKQ/UnFXR0mFiA9VVrHp8OgcEKgiZJiFDYWqb44cPo7SqiuOHDSNYXk5qdjYqdkbGno7GsnnkkYdZ8uUSfvnLX/L4449zaK9eTu07Jun0aOX10G/wYNZ98QWhDh1Jt4E9PtBnUG4aVB7UhZN+8xuycjrWjEuIFiKXWbuZBiIWh6f6eeFX59K7OoDfturvPLm2HB1EyPSyMsXL5GUFvPntt2C2UopoTcXrr7PrxZcJWWF6nHMWCxYspM9FF2F17MqxZ5zKsuXLMNNSyerYEWU2L5TrHz8NNoms+HwxfznjdP5+wghyw2G8tkVTQ1krgwrTwxIrwv8ueJ9PNheR3bmzBLJocdIa5nYek1FXXcPzXy+lzGNgKbX7CRgNiChFiddgwttvc+ntY53beLaWDZsp+tebpFhhVN++0DefnFCE4v98wrqvlvCHCy9k2sTJlP6wqXUuvGikKab/sGEcMnwYPxo21VpR/+6tNq0MdhkePqqu4Ja5/+aK8feQ3bFzQ837QjSb1JTbA0tz/nHHcbLp5axOOeSEwnhV7DLrxP2qxlaxi601ltJs8/p5bu1qFkbCfFTwHRhG69TuggE2Tfo7mUu+pDA9k34P30/BzOfJ/OwLdnbpwsDx49i26ltCX33Fqo2bOXHSREhJ3bc1TQ0VJVv4dX5vJpx4Mn2tCGl22GnpSLo2RUWbfcJKUeXx827pFh5atIiz/3wDE6dMqdm5SU1ZtDCpKbcHpuKlhR+yMS+Xf24qZKPfT6VhEomewqCVEyCWYWAZBtWGwU6PwTd2hFnr1vCtz8dH36xonUDWYFsWgY8/xljyJUHTQ49RoyCnA2pzCSkRG29OFnTMxI9m68ef0v2HjVQt/WbfP3JJQUbXLjy68CMmLVnMgkAFW31eQsogogyChoGlDAIG7DIMSnx+PgsHmbRyGQuAWZ8uYuIDD0D0ohoJZNEa5EBfO2GmpnLPC7OY89xMbrzrdn7RuSMn9e5Ntm1jhMMYpo8qrdlYsoWNleUs2VbCusoq+gweyMxX3wCfr3VCRIOxfRvrnp5Jd1ux44j+dD31FFAKf1UVptZ0zMsD00PmUcdgdXyVDltK+PGfr9F74EBIT22FQjVAQZ8hg3mlYCUP3nErc96ay4gDuzHsoDwMDSFt813xZtaUl/F5cRFrg9VMeOxxLrj0jyhTNhfR+mQta08Mk99ccTkjzjiTh+6bxHnTp9PJY9C30wH4fCbdMjuS2+1Atqf42bBlC2eOvpSrbrsN/4F5rRLI2o6elrx2A56IxeasDPpe8jtIS4dImEplk2kosDTYoNP9DLnpz6y9/S58mzax9ZslHHDM8fu+xqkgLTuLu6Y/ydYxm/nq00+Y9tyzLP58MaXlpXTMzsHwejhq5Ok8fd9kcnscgjTyiX1F2pTbKw1VFZX8338/5tUZz7Dh2xWEqqvpkJ3Nr84/n1FXXkFaTg54vJB8eXILl4Nd5ax95TUOGdgfz5FDnLM7bMWycePpsqKArT17MuDev6H9KahgFSv/ei+lq9bR44ZrOOj4n7ujEU1DuDpAJBLCtmw8fi/+tNT4pdzSViH2FQnl/UHsVLDYHda0rjkQtS+eJKIBK1ptNqOFsWzWTn+StPnz2XlQLv0mT4LsTKdsldWwbTvkHggejzvzTi4IEW1Emi/aq8TQUEnvE0972xfBogBPYnXXOVes0wEHEEBh25GEsirISHNebiaBLNqIhHJ7kVjj1UmfJXJLmCjnH601BirhPsiJ3wshkrmhNU80Jvmm8vVxTdAZ0bvmO/c7jt5/s+Zr15RTCPeRUN5fuC3olBm9Ab6SxyYJsQcklNuDxu7k5srMS2jwjt58vtbHQog6SZtye9LAQzpclXXR5gor+nw+ZRg1oSyEaJDUlNuLBjLNdXGnAKXw+f2ARs66FKLpJJRFq1HR5/HFH6IXIxktRL0klEWrqWlK1nL2hRBNJKEsWodSoDzYGNGHV2mpIQt3ctl6KaEsWo3f50Nr7Vx5LVpNoDrAP56e0dbFaJeqq6pdd8xDQjmZhv9+9F9Kire0dUnar2jF2JORjq1tVHUQAsG2LtX+R8PmTT9SWlrKO++8jbbcFS7NsXPHTgo3F1JUWEwkHGn18R3e73BuueVW50109oWCYXaVlbdZDfqnHco64RVlWTa3jhlDMBjY/x73o+t5tQYFpPmdZoyqKqgO7Fn/rVk2N6vrIYv1zQcFJSXFrFq1Cp/PX/vp4O1x/mnYunUrk++bzIgRIzhq6FE88fgTbCnZgrZbeGK08wBe0zRZuXIl77z1Dv9681+sXbOW++6bzBFHDKCkZEu8233ppx3Kit0uvjBNg65du2AYhrvnjnMVc80rOWTr2ihVPa+GxtGcjTt+cM/GUBpDhyHxpkRNGV5dZWvtHUlD6tuhtXRZkqe5kWWUnp5OcXEJRvKzF+ubf26mIL9PPlOnTmXF8uU88eQTFBSs5OjhR3Paaacx9725VFdV7910aKgsr+T8Uecz9MihrP9hPe+/P4+LLr6IO+68g4ULF3LF5Vdw0kkn8cyMGXt0EYBt2fFx7A25eCRRdGamp6djmqYLr8pI0FigJn7X3JsANdZ9YijttgNzvow//y52D4ymXIFYX3kT74bX1GWTuIG01LJsatjtg3XH6/VRUlxcu120vhtVuXVdroPP72P48OEMHz6cRx55mGXLljFjxgzuuOMOBgwYwO23305+fj6GGV3xmrI+RLspLCzko//8h16HHkp2VjbHHX8cLzz/AlnZWU4N2rZ55tlndhtmdVU1qWmplJWWYduaDh1zQEMgEODyyy9nyZdLyMjI4J133qHbQd2aPe3Nrwsm19TqqrG1Zc2mmbSGTp06OfdraKfTsJvW2iATa9uJ88fGeSyJrZ2XBlTC8wEbm5f1lbcpAZu8vJryi6Ap6hpObH3f018gLSG6/aWkpFBcUoyhkjblfVmWlpZUdsM0GDhwINMencbizxdz/fXX8+CDD9K5c2euvuoaNm7Y1PThAr379KaoqJDPFn3GMcceS1ZmFhmZmfF1RhmKc3/1a8rLK3j6qX/wzlvv8Mc//JFu3bqxpWQr/fr2Y+jQI7EiFigYPGgw8+fP566/3EUgEOCss8/eq8lvck35/Xnv89RTT6FtjY5epZW4d27oCKbW2pmA+ihqtRnZOqkxVxM9rSqhBzTa1k54KmfvprVGRZ+yUVMeFesawzDi3ysUtk44fzbaj9aa1atWU1BQgMfjzB47sZYHmIbpdFtHumhbY2u77vmh65hPCRuMbdee7tg0AbvVhJLHXXu4KtbRbuNKvjlQ8nKEmm50tLwKsKN/a4pQM/zYMtA6ujy0xm/bnGCa/DnvYBSK68+/gC8ti4hynritd0sKZ/k0eCS8zspg3WVvqB+dsH7Ve7Ok3eZd/dXjJg8j4SOnl9jNmmLL2OlCKYVCoYmuz06ntYZna+2cdagUGzduIhIJM3z40fFpMwwDpVSd81PFxquIDz++7IitWyo+2li3ddVG65z2hHCr9XF8HM5YlaHiO5Pkcmqto+Oq2ZMb0R17bDh9+vThny++yMyZz3HNNdfy4EMPODvKJlQ1TY+Jbdl4vR4CgQCGobAsi3A4jM/rY+7c9ygv30VBwQpmzPgHS5cuxbIszjnnbCqrKtlZWkpJcQmznp/FqtWr6Nu3HwsXfsT69eu56OKLGy9AAxoP5ei8OuWUkQSDId544/XdwgNiG3d9w6g7wBKHn/h9YxumTuxxtzJEQ0Y7K0xs5YwFv61tlDIw6llhUbB27VqyMrNITU2t+bUcnYbYShhbmXfbgUCdByXiZUuaTttOfG/vtuHFJjgxBGu+q5kPznBqNuLEeVRX8MaGmfhdcje2ndhf4rBj46zZacQCwHmvUFpTGqom6DFJ1ZCOQarPJKBsNAorIQRi4zYMI2HDc4IlNg21gqqOIFBKxV+xhRYrU2IIxbqtmQdgOOkWb5d1dtyqdiagEoKU2utBQrjFxpv4eSycEj+P9Rsrl2GY8cpD4nfOPHDK6fGYtacZRcSKUF5eTjgUpn//w51+lHOvEZUwvc5wauZR7Wl2utVaY5qms30kBGp8G0qcd6j4HQATvzNNM/69aRq1llXi9hgrp0q6i6BhGJiGGZ93seUdW64qGp6rVq1m5nPPMeCIAVx22WWYpsmObTvo2KnjbutGfQzTIDsrm+KSYlAwceK9vPrqK6xYsQK/z8/ChQsxDIPFixczcuRIPvjgAzZt3MTy5csZMGAA27Zt429//RsTxk9g/fr1rFu3lgsvvJAnn3yiyWWoS+OhHF+wcPY5Z3H2OWfV3V1TfpI2pL6fpsnti411tyeSf+JGPzv33F/z6LRp5OXlOXvd5HHaSf3syfga6qeOmm27Vr6Lb/58Pf7SMsbfdSf+M88Eb3TGNXXamtJk0VKau1wbk7wON9TdHo7bCltc8acrqKqs4sknn8Tj9dT5i6z224Qdffytju/AEisAsc8TpyO5v1rDiP6Sju98Enqt2WnX/vliJ1VGasYR3U1pTUVFBR988AGPPvoY+fm9GTNmLHfddWetQM/Kztrj+Tf0qKMYP24c0x+bzrSpU5k+fTq2bdPz0J6UlGzB5/XRoUMHXnzxn/TqdSiz58yme/fuDBkyhIKVBRimwXfff8cLz7/QYutNyx3o29sC1dd/8udN7a6ZLMuiqKiQyqrKurcRTfNb4hsr474K4cbCv46WkDq7a4zPS6RTDpHyMtavXcfPmjPz6hpnM8KrSVrrbJumlrU506QgGAgSsSJYEctpcqujmaqhd83WlErE3uxUbVizdg33338/8+bNY+iRQ3nhhefp27evc4CvJreb7fe//z3jx4/j3nsnMfa2sZx33nkYymDWzFkcfMjBBANBLrn0Ejp16siaNWvpfEAnAGbNmoVSigemPMB1/3Mdpmly8cUXs379D8yd+x6lpaV89NFHzZrVP+2zL+pqDtOakuISSopL6JPfp97uXK+hjWFPdw7NnX6vh/zfnse8h6by80EDwGu2zLxsj8ujNWgwlEEwFMKyLKfGmfzrsTXnVVOG3dgvw8RfwNF9dlVlFW+//TaTJk1i1arVHHfsscybN4/DDjsM02M6tXFL17RZ78U0ZudkUVRUhFIq/isD4IiBR8SH2/XArgDxQAbI654HwJVXX0mPnj249tpreffdd/H5fAw7ahiTJ9/X7DL9tEO5DpZlUR2odtqZ3HyecmPaOLhsDQYmxRmZjPv4Y5Y8+VSbl2m/o5w21lAo6LTD7nYUrk1K1XSq9v/D4TDjx49nypQpZGZmcu2113LbbbeRlp6WcJQ22n5v1jXA5vH6vHWXqYlOOWUka9asqbkB117Odwnl3SgyMzPZumVrWxekXXN+PRv0HjCQG8aNY0egmoPo0NbF2r9Ea5oe08N1/3MdXq+30V7cqnxXOYsWLeKEE05g9OjR9Ovbr3b7flKAu0nsbMSWeo6D0m67G0cbq6qo4phjj2H06NGMGTumrYvTrmk7aUV12ca0X9DOWTDxiyhEuyc15SS2tune/WACgT28V4PYTfL1DKIVKCSQ9zOyNJNoW9OtW1cy0jP26qiuEEI0hzRfJNMQiUQwlOH+mxIJIfY7Esqi9bT2KVnCEbtAQ0uT0f5AFqFoPRLI+8yc2XOY/thj0uS2H5BQFq1Dw7JvlnHh+ReysmAl3638jjpuEyJawOLFizn/gvP5aulXbV0U0QIklBsRqApI7aOZzjzzTF57/TUGDx5C/wH9Ofnkk9q6SPsXDcHqICeffDKWZSE/TfYPEsr10TD1kanO5ZSyrjdd9HLZTz75hKKiIs4662xWr17Fgg8XsGjRIiaMnyA7uZaiwJ/qZ/my5QwdOjTaqNzWhRJ7S0K5Hp999hk333wzwUBQQmRPRK/CmjFjBqefdjqzZ7/BwYcczM9P/DmX/fEyZs2aJcHRwnr07EEkEiEjI6OtiyJagIRyPR5//AkOPvhg542EyB4JVAV4+eVXGHvbWAyj5iYFw48eTllZmezkWpjWzi0za93DQbRbEsqxgLCpddOTWbNm8vLLL9c8q0802Y6dO7Bti4EDB5I485YuXUpOdk7bFWw/Zds2wVAw/qQc0b7JUlSw+PMvuP3220hPT8eKWGRlZ/P0009TVlqGx+t1HjtlSnW5qWzbqbkFA0EyszIBsCIWL7/8ChdeeIH88mhhtm0TCARI8afIueH7AQllDTk5OYwYMYK01DQM06RDhxzS09MoKi7C5/NJIO+hzMwMlKF44cUXufGmG9A2jBkzhu3btzFlyhQJjhZmKIPU1FRy83Jlvu4HJJQV5Of35u6/3F3z6Kfo0wyKi4udZ5lJiOyR7JxsRo4c6fz6SEvj3Xff5d1/v8tbb70Vf+acaDmm12Tp0q8xDUPW1f2AhDLUe9/Wb775Bk87vkdtW3r77bcZMmQIV119FXl5eSxYsJATjj9eAqOV+Pyynu4v5N4X9dGw4YcNzJ8/n8v/dHlbl6Z90hAKhfD5fc1/zp8QPzESykII4SLSwCeEEC4ioSyEEC4ioSyEEC4ioSyEEC4ioSyEEC4ioSyEEC4ioSyEEC4ioSyEEC4ioSyEEC4ioSyEEC4ioSyEEC4ioSyEEC4ioSyEEC4ioSyEEC4ioSyEEC4ioSyEEC4ioSyEEC4ioSyEEC4ioSyEEC4ioSyEEC4ioSyEEC4ioSyEEC4ioSyEEC4ioSyEEC7y/6gNUa8+AMjuAAAAAElFTkSuQmCC;movable=0;resizable=0;rotatable=0;deletable=0;editable=0;connectable=0;" vertex="1" parent="1">
                    <mxGeometry x="170" y="310" width="357" height="108" as="geometry"/>
                </mxCell>
                <mxCell id="6" value="动画暂停&lt;br&gt;&lt;div style=&quot;color: rgb(212, 212, 212); background-color: rgb(30, 30, 30); font-family: Consolas, &amp;quot;Courier New&amp;quot;, monospace; font-size: 14px; line-height: 19px;&quot;&gt;&lt;span style=&quot;color: #ce9178;&quot;&gt;paused&lt;/span&gt;&lt;/div&gt;" style="text;html=1;align=center;verticalAlign=middle;resizable=0;points=[];autosize=1;strokeColor=none;fillColor=none;movable=0;rotatable=0;deletable=0;editable=0;connectable=0;" vertex="1" parent="1">
                    <mxGeometry x="80" y="49" width="70" height="50" as="geometry"/>
                </mxCell>
                <mxCell id="7" value="" style="shape=image;verticalLabelPosition=bottom;labelBackgroundColor=default;verticalAlign=top;aspect=fixed;imageAspect=0;image=data:image/png,iVBORw0KGgoAAAANSUhEUgAAAXIAAABoCAYAAADsHntAAAAb40lEQVR4nO3deXxU1d348c+5d5asmAQJhEWQLVhBNsVHSy1UFC0uj9WCj3XpTwpqq+3Toj6Ka4W60Kog2tZHAW3xsSrQKopoLUJF3BGVLYqACIQ1JGSd5d7z+2OWzExmkslGMsn3/XrNK5OZu5x75t7vOffcc89VWmuNEEKIdslT40EphVIq4TTGMUyPEEKIVuBo6wQIIYRoWH2NJ1IjF0KIFCeBXAghUpwEciGESHESyIUQor2yG57EUIYEciGESGWvrXhNeq0IIUQqCvUrf//9D6RGLoQQqUwpaSMXQoiUo1BorcO1cgnkQgiR4iSQCyFEqtLg8/pQMmiWEEK0Uxo8Hg8KBTFjZqngB++8844EciGEaM88NR5AETv4Yah93LJsaVoRQoj2L3F92zQN6UcuhBDtXaj2re2IgB5RDZdALoQQ7ZhSKtDdEI0y4j9cQgK5EEK0d0phoLATXNKUQC6EEKmgbseVMAnkrS22AE382D0hhEiSJjKYSK+V5tKBl7Z1+H0UleC9iKCj/oTfWzZEnkraMX+F6EQie4orbUZ9JzXy5gjlqw1Kw/7iPThcLhwOB1prMrIycbndgWkkiNevuoZ9Bw6w59tdVJYd5eVlS3l9+XJu/OUvmXjRRXTr1ZsueXn19cISotNQ2IF6o9YolNwQ1GQatG3zyXvvU7n/AP989TXe+tcqtn27nS7ONLBtCnr34Z4HH2TM+O+T071bW6e4/dGwZ9t2/vq/T/L5qtXs+uYrLE8N3c00Bh/fjcF9+lKjYPWObby/fx8Llyzh3PN+GJhXziVFJ+H1eFEquMNrjUZjaNCGQutAP3IJ5MmIbo4CDRs/+phfX/tT7AP7yKrxka0MlN9mYO9enNK3H8q2qPRbfFy8j/eOHOSFd/5N38LCxMvsTDRov8Vvb7udDW+8SbeaSpyHShje9wSG9MinX3om6ZaFoaHGVPx7z26e/eJz9jqcPLl0KWeeOzEwdmdnzT/RqYQCuQI0OnxWqoLHwIcffiiBPCkRQdfn8XHT1Gs5un49Z3fvxkB3Gsc70sg0TQzbxq01abYGZWMpRalp8tbBA/xp/XpufGgOU395E8FfpPZvpI4enDTYPj+XX/ojxg4cxPpFi/jJiGEM6pJLhgVp+HHbgSBuK7CUosYwOOhy8mVFFX/fvJkTzj+fex6bj0p3t/XWCNHqamvk0cEidJPQjBkzJJA3hrY0V14+BX/RFq7teyLDlEGm5cdhaQwCYwObOjhWcLANy6fgiNPB8n37+PveYsZdeTUz7/9dbdNAvNxvz8Fcw/79+6moqGDVqlWUlJTQs2dPJk+ejNvtTirtM2++le9+Zwiv//a33Dj6NLrX1JCuQaFRGgzscBmnlQrno0+ZHHY5eaP4IM/u2slrn67n+Pxu7Tu/hGimRIE8FLpvnnGztDQmI5R9u77ZSX6am+NLyjjJdJDrt0izbVzKwoGNqe1gELIx0BiAE02e38dF3XswISuD95a8wN+eeSa654WKebVnCrr36M6A/gOYNm0av/rVr6iurqZfv36ceOKJPP9/z1NZURl/Xg3V5ZUUb/uKvz/8KFNHnkpBtZcMy4+p/RjaDgTzqHk0aI3DssmwLXp4PVzUPZ/xWVmcMbgQT3XNsdhqIdodh+nguuuuQyklgbxBuja23nbjLzl70CDOHzyQXJ8Phx246BBoJgmEexuw0dgE27MAh4aufosrBw9hSFUNc//nVioPHACrlU6G4nWDjPdZcwT3nLT0NKZfN529e4tZs3oNL7zwAgP6D2D0yNG8ufJNyo6UBZpTLBsUfP3111glJQw0oJtt4cIXzN9QLutwUkPJVYChFEprXJbN8d5qrhpSSE+fl0f+8AfpySI6vHgNJ6vXrOaeu+/hkUcflUDeoNr4wjdbN7F4zsMUHpeLy46sOSrQ8bNS6cDL1JDns5g+5nRONkyenj0bW+vADxQvEDUm8CZqZ4+Nhi1d249YnjLghH4n8I+X/0FxcTH33Xcfi55ZxOmnn85PfvITPvrwIyorqigrLWNn0TZO6daDLL8PhzLCbX2Rm5OoxckAnFrT2685t19f5t9/f8sXUkKkAL/fj8vtwrYt6UeeNG1TkJnFgBw/XSwbI9gNKPkIYmNq6OX1cvVpp/LkGyuZWl1FVmYW2rLBiCwWgs/jMxTa0igz+NdQtRdI4/SkQYG2A0E16kJqU3rIRBYA0dlAuCeUXfvMwNDzA23bRinFpAsn8cNJP6SiopIvPv+cl5a8xH9dcQUnFxay/3AJzi45+C0vluUj+taG+GrLoUBbYYZtceHg77DswAF8VdU4M9MbuYFCpLb09HR8Pl9gUC252Jmc8sOH+fHQYdwx5jRG+Py4daCRWzUm95TCrxRfOV1c/eo/GHThJfzz7VXhkc0Mw8QwFIYyMMzAe9MwQYFhmCgFpmHicDqCizMwDANDKQzTQCkD0wx+ZhjhLkuGaWCaJoZh4jDNwP9GdPjUBM4OvF4vWmt8Ph+2ZaPRWJaFZVnYto1l2di2hW3Z+Px+tLaxbY1l+fH7/WitsW070JQC2MF88ng8gWX6/eQAJwE/7dOXySd/hzTd8K2akScUwZxnd0YGN378CeOmT+OWO2a2/+sLQjSB1+Ml9sESgaituemmm3A6nFIjT4qGr7/aRvmBAxQYTpzaH2ei+voUBqfQge99tk1OehbDR45k7uPzSU9Px+Vy4XQ6w4tQqvYp2YG/RngtSgWHtESFvw8FTKWMwA+eoEYd+6HWdp1adey2h/4YKjT6mg5PH7nMQLfWwFmDZVnB9CiUMti27SuWLV3GrHvvIceAcSf04exhI1AeT9y8ihW32d/2U3X4MGtWreaWmRLIRecROEwVjz/+OKAkkCerrKSEAd27kxF8rFLdmngoihgQvNQZy1KB7nQeremSnUPhkCH06tWr7iLqDcIR4jSZhJs7Iptg4jXfh9dhRn+WaJ3B6c360hScxrJsiot3s2LFChYvXkzR1iJGjhzJjJtnsGNLEdPPOIMpo8bQtaKStODZSGOFCgjT5aTG55EgLjoxLYE8KQoMNEP7nYjbtlFaR/RzjgzqRu0MCYKTRlOmbXZXlTP+B+PjB6Bkg1Kc6aIGnq/vAmdT1huvoAkWFpZts23bNhYsWMCyZcvYv38fp485nTvvvJNx48aRnpaOMhRWRRVlPj9lFRUYykDbjR0BK1DaWCj8mBytqebkE06QQC46NQnkSdqyZQu7iouhaz6hSKYgIl7HDt1Xl6kVXkOxo6SE3kO/Q15uXvQEsS0zicuDxJKZJ/YiaaLvItMUr7lGg23b/Pvf73D//fez7t336Nu3L7/5zW/4r8svJzcvt26Lk9tFzoD+7K6uYmhmF1xYjd5ArcCrwOjWjVK/zfwnnmjkMoToWCSQJ6mgdx9e2LeXqlNGkB3s0xxdQW2oB4vCMhRHHQ42FO/jpscexTCN2Emi/8a+T1Zj5km2Fh5nWtu2mTd3Hh999BHnTJjAn/74JwYM6F/3TCBiu0yng0GjRlL00Qec3SUn0AumEYWVVmCjqHIoanr14Ps/upSs47okvwAhOiDptZIsn8VJGQ4WX/wjBlfVkGYHbstPrgOiwlaKGmVSlJ7GrA2fsvyrrWAk0/GuHYu+1pl02/5n733AXRPPY+648RT4fDi0RTK5qBVo5eCow+BTy+LWf73F29/uIff4rtK0IjqseL1WYskNQclymEz5xS9Y/NknlLoc+AwzeBN+oNO2TpjJCkspfMrgsNvJfa+9wtS77oi+yJiqYocVqK9NPuL67/D/OJ3+3zuL7dhUB8dSaYhW4FdQ6jRZ563h1yte46f33E1u1zwJ4qLTkxp5Y2jN5WPHMkGZnJ/XlRyfH5eOrpPbhLoZBnpW2ErjR1HqcvHUth28bXlYs2VLxw8+9fWAsaHy0GEuGTiYWT8Yz2Cvh3QsDB0YNEsRGPnQ0IGSwdIayzA45HTy1pEjPPTeO1z23zP43UMPBW6k6uh5KTq1ZGrkEsgbya7xctc1/4/soq1c3K8f3S2LNL8NysalA8Ouaq1BKXyGSZlS7PZXs2rXLjY60/m/Dz8CVyc/EQoG+aIP1vM//3kJU08ezIjM4+jir8alwQjfIKSoNA2OKINtHj8rdmyntFcBv57ze0acdmo4gDflxlUhUoUE8laifRb/WPQMT99zN9/tmsfZ/QeQp8FpayoNjW1Z7Dl0mK/LjvDJ4YPsqq7ipBGj+f2SF0kr6NXwCjqD4F7nKavgD7fewpfLX2Fs7xMYVdAbF35qbD87ivfwVXkFa/cd4CuPhweefJIfX3kFmA6J3KLTaCiQa1tLIG+UyKqfhsN79zHv9w+xaP48ehlO+uUXkG0YdDnuOHr2LKCsopL3izbzw0sv5We330ZWv36BeSUI1dKArTlYvJeP16zh5UXP8sEHH3KwooxueV0xTcWo8eO484GHOKH/icnfLCVEB9FQIL/zzjslkLeE8tJSPli9hhf/8ld2bd2Kr7yCLrk5XDjlcq667nqcuTmEh+4TtRK0iXiqvfj8fiyfn7Q0N+705B5YIURHVN8TgpRSzJo1SwJ5i4kdkVDrqBENpSG3EWyin6CUaJgBITqB+gbN0lozZ84cuSGoxdTpeqeig7cE8eTFVj4kiItOLDCYHcQGkTlzfk9lZQVZWVkSyFtNU26vF9Gk8BMCqDsyqQKcDgczZ97B5s2bpGlFCCHahUTXjGo84fbwSDXVNTy94GluvPEmOWkVQoh2IcEZaCCAxwRyDS63m9zcXA4fPiQ1ciGEaM9CvVaUqvsQZq01d8y8QwJ5S5POKUKIluSp9qAMI26vFcMw0FpL04oQQrRbGhwOR52auIp4HCRIx64WJ7XxFCTnpKK9UmA6TLxeb737qQRyITpb6ZvcIPqirUX8Rm63K/yA9XikjVyIzkwu6qSG4GMVfV4fmkCf8lD7OEiNvOVoAreWi2bbuX1nWyeh49MwZPCQtk5FStq5fSd+r//YrlSBYRq4092kpaXhdrtxOp24XC5cbpcE8pby2WefMft3s9s6GR3CtOnT+Hrb15QfrWjrpHRIFeUVLP7r4uCDClOchtKSUor3FlO8Zy9eTw3atsHWrdZ8dOmll/LMs38JVNyCT74qKy1j08bNrbPCWCrmhTx8ucWsXLmSrl27tnUyGq8dDgtbUNCT9evXM2LESLK7DKz7bFDRPBo++eQTevbsGbj1OzJTUyx/tdYcOHiAxx9/nFX/WoXT5WDatJ9xySU/okf3ApTRcttmWza2ZVHjqeGp/32SkpIS9u3bx4SzJ/DGmyv50x//yOYtmxk4aGDzVlSfBMeCBPIWMmL4CHbv2R3/y9YMls1t44ydN7YW09RlNyP4DhjQn+rqahym2fD8LZXeVNeI2qfpMCkpKSG/W34g0EXOm2g5qoHv24gyFIMLB/PYvMfweD1s3LiRvzz7LN8/axz9B/Tnhut/zsTzJuJ2u+rc4t4Y+/cd4Iwz/oPS0iOUlZViKAc1NR7GjRtPRmYmDz74IGPHfpeSkpKGFxbMQ601xXuLyc7OJjs7O/mG7jjHvATyFpKZlYlpJnigcmsGl5ZedkstrxnLufDCC1m79l3SMzJadT1JSaYQri+4HauCpRHrUUpRXlFOXm4efq8fhzMiDCQq2NvhmVsUA9xpbkaPHs3o0aN5xG+xafMWnnrqKe67bxaDCwdx1113cdJJQ6Jr6UlKS0uje34+v/jFz3nxxRdIS8tgzeo1Uflx2WWXAaDtQD/vyspKvv12N4WFgykq+pKqqkpGjRoFCvbv28/ZZ5/N1q1bycrK4sUXX+Tcc89tOH8TDMZ3bNrIdSNfbZgebWu0lfgVvqgZ+dKQkZGBy+U6BolvZ1rh9xoxYgQLFy6gS5fs5i2oqftV7NlEMgdXolc7ZBgG1dU1ZGRkYNs6Or2x+ZUC2xMlmE7TYTJs6FAemzePd9e9y8zb7+DRRx6ha9c8fjb12kZfUD8upwvvrlvHjJtncPLJJ7Np0+ba4ZYV+Hx+TjyxPx6Pl+cWL+bWW27l+uuv59TRo9mxfQfDh5/CueecS1VVNYcPHWbkiJFkZmSyY8cORowYwaxZs5JLSGhs/mNZI399xesseHoBlm0lTpfW4Vei78KnIhFHWOA7Ahc2YoS65YSmDy0jvI7gXVEKFZ4ucqB2QxmB4cRD61a16wSFoVRg2ZpA0YumvLycqqoqFi5cFFpF8CHMtetVqPD/8be39o1GR6QPtLYTNqNELU8T3J7YvEocyULbFUp35DoSpzN6mQoV9ftEtrtG3oGGChaW9URWpQw2btzIWd87K4n4W3eK2FPoUFrsOttSOzSotiPSbqiotmOlVNRabNuKHlI0tIzQfhYnLSq4n0TlWUS+hPbHOvtLnS2M2Kdjt1fX/l9fM4KtNTu2b2fDhs9Y99668KBMhlLhYyMepVTg2AilRMf+jpHz6ain2tTNr8SPLlPKwIioNWtN+OCo89tG/DYqYtsDs0SUTBo0NgMHDuL55//Gc889z6RJk1iydEn8RMRhmIFtt204evQo2oKKyir27t3LoEED8HhqKCraitfn5amnnqKishLQnHraqQwbNowvvviCvXv3MH/+fErLSqmsqmLs2LHs37efe397b3IFZYJpWjWQn3feeRw8cJC3/vVWvdMlCjKhYB3vYK09aGK+S3QKGBkEI+fThIMlhONy6HCJm8bQjhgZCLxeL7Ztk5ebS8SECdIem9jadYQCYnjnDacnJhhHbIPWGjuiQIsOKDru9PHyI5zXEYVebOEZuf7awBgsjCOCYSg9SkUH+LjbEpUngULL6XDidrsDc0Z8aVnRlQLTYYbXEwqEoSARWSjHnpNGTUug8I8SnFzFDW61v33keuMFQNMwa78L5mvkMiMDfWhgpBDDMMOpVhHLD6+T2PQF0xMzbWzQdDqdHDhwgNzcHIYMOYnMzMzgb6fD+4RCoQwV/TfYd5nwOmrTaygDwzQitikiLaFlROWVEU5n7LYbhhGV/tBvE5rOCC0r4lW7PwcKpEDQDaTDNBUej5dvvvmGRQsXMXTocH429VoM02T3t7vp3ad3nd+tPgU9egEKW8O8eXNZ/8l6li1bQnZ2Nls2b8GyLMqOljFhwgTWrl1Lfn4+69ato/+J/dm2bRtr167lz39+ktzcHJYvf5ULJk3ioosvSlhRS0br3hCUKKgeC/G2qqXSESfDX/zbixw6dIif3/jz+OsOzVNfGmLzKybYRn2XaN6Q1sjzZuxojTVo4CCKioqCgePYrLPNJfsbNzM/tA1Tpkxh2NChXH/DDXTrdnztWacdKNCjyqRQpSCmcK9zphf1Nrpgj6oohNYTs4Lo5dZZYJxlhSolOiKOq8AZEwqP18dbb/2TRx99lIEDB3D7bTPp06cPShFoUkKTk5uD0+VsRN5pnnvuOa655houuOACVq1axcKFi/jx5Mv4wfgfMH36dADuvfdeVqxYwQ033MCiRYvoWdCT666/nry8XN59912UUrz55pu409xAoEfMoYOHyO+Rn3RaIh2bi53HMACEteT6Yg+gOLX9TZs3YRj19LJIJg9iv0+0nHjzxQb8RGe8sctpKE0NLaclxCmEqqur8Xq9pKWntdJKj7Fk8rux+0ei9TQwXegkxeF0UF5eTrf84yO+U6g4aVWxH7S2+va7er7TtmbH9h3Me+wxXnn5ZYYHr7cMHz48fPbSpAIxmK/KUFx++eUsW/Z3XC4nr776KmPHjgUNS5YsIT09HaUU50w4h67Hd+WNN94Ir/Px+fOprKriyy+LOO+88xg9ajTjxo+j9EgpH370Ibat2bp1S/TF5yQdm0Ce6jWqJGrRW7ZsITsru87n4fmbe1k52Txsq+maI/ZgtDQej4fDhw/Tq3evY5CAY+BYHQNJrkcZBi6Xq05TVcJlxAt+rXkW2JgCT0NNTTWvvbaCBx54gC+//JIzzzyTlStXUlhYmFwFqRHpcTgdLFu6tE7FLq9rXniaOhUQBU63kxz3cYwZM4bPPvuMJ//8JEuXLqWwsJA5D83h1NNOa1IQh9YO5KkewJMR3MaSkhIyMzPrfC4aT5mBzNu5c2fHCeTtjFLg8/qiLirWP0OSnx1jFeXlPPjgA8yZMwen08mv/3sGb7+9muzsrKgL7C2uORUzBX1O6MPs2bOZPXt2YFk2zUqn9CNvIUdKjpCXm9fwhKJB2ta8885atmzZ3DbNch2dDaNGjeLaa6eSk3NcW6emySorKvn4408488wz2bBhA4MHF+JwOsNnCuGmlPbKSPC+CWT0wxYyfNhwhp0yjMWLF7fvnSeVSBBvfamex1EXRdt54G5FMmhWC3E4neTn58dvcxRN00kPymMq1fNYEeqbmfrb0gwSyFtIQUEPzplwTrPGcxBCiKaQppUW4vf5m3zFWQghmkMCuRCdjLZ1eNRD27YDN11p5Pw8hclPJ0Qno5RC2zBjxgyuuOKK4IdtmybRPBLIW4Oc4zSNhqKtRYz97vfYuqWIzZs2B27zDg4DIlqIggVPP83cuXMpLy9veOgI0e5JIG9pGnw+X2DIW9EolmUxefJk1q17l+HDT+GUYacwbtw4PB5PWyetQ6kor+Duu+/G4TAxTUMKyQ5AAnlLCR4Mn67/lO753Sk7Wta26Uk1Gr74YiObNm1i4sSJ7Nixg9WrV/P555+z4OkFbZ26DiUrK4vde3ZzwQUXojCixx8RKUkCeUtRUH60nIv/82KOlB3B7/fJwdEYCh5++GEmTZrE8uWv0rNXT8aeNZa7776bmXfMjBpJTzSTCoytvX//froc16WtUyNagATyFrRixeukp6dhAA6HQ9odk6XB6/Hy9turmHrtVBzO2kfmFRYW4vV68Vv+NkxgB6QD4wNlZ2dJIdkBSCBvjpiLcFOmTGbDhg24XOmBU1aRtN2793Ck5AgnDx0a9fm3335Ll+wuiZ+HKpqsvLyC9PSMQFdEqXSkNLmDpYmOlJRyzdVX47f8GIYDp9PBHTNvZ3BhIVorlJLA0xh+vx9b68Aj7YKqq6qZO3cut9x6S90n+IjmUVBefpS0tA4y3nsnJ4G8idwuF2eccQZKKTIyM/H5vJw05CSOlJaCslFKTlcbo6CgB263m5deWsLtt98GwNy5c9mzew9TJk+RGmMruOrKqznnnHPbOhmiBcidnc0VOeC+DZ9/8QVjxpzGoUOHyMrOasuUpY5gHl555ZUseWkJTzzxBK+vfJ1XXnmFBQsWcNXVV7Vt+jow27IxTOlInuqkRt5cKvr97l27sHx+pELeCME8XLhwIdu/3s606dPIz89n+SvLmXj+xLZNWwcXejK8SG1SI29hVUdrmDfvYW67bSbKKbWcpvDUeHC73bUfSDYKUS8J5EIIkeLkvEoIIVKcBHIhhEhxEsiFECLFSSAXQogUJ4FcCCFSnARyIYRIcRLIhRAixUkgF0KIFCeBXAghUpwEciGESHESyIUQIsVJIBdCiBQngVwIIVKcBHIhhEhxEsiFECLFSSAXQogUJ4FcCCFSnARyIYRIcf8fVvlNPrelX54AAAAASUVORK5CYII=;movable=0;resizable=0;rotatable=0;deletable=0;editable=0;connectable=0;" vertex="1" parent="1">
                    <mxGeometry x="170" y="450" width="370" height="104" as="geometry"/>
                </mxCell>
                <mxCell id="8" value="0对应的位置&lt;br&gt;到终点了" style="text;html=1;align=center;verticalAlign=middle;resizable=0;points=[];autosize=1;strokeColor=none;fillColor=none;movable=0;rotatable=0;deletable=0;editable=0;connectable=0;" vertex="1" parent="1">
                    <mxGeometry x="35" y="480" width="90" height="40" as="geometry"/>
                </mxCell>
                <mxCell id="9" value="只考虑起点和终点等&lt;br&gt;位置,&amp;nbsp;&lt;br&gt;中间过程不用考虑,&lt;br&gt;交给css来计算" style="text;html=1;align=center;verticalAlign=middle;resizable=0;points=[];autosize=1;strokeColor=none;fillColor=none;movable=0;rotatable=0;deletable=0;editable=0;connectable=0;" vertex="1" parent="1">
                    <mxGeometry x="25" y="270" width="130" height="70" as="geometry"/>
                </mxCell>
            </root>
        </mxGraphModel>
    </diagram>
</mxfile>